# xmcd
#
# Track frame offsets: 
#        150
#        21260
#        40531
#        54240
#        77437
#        108226
#        125425
#        149054
#        169940
#        190559
#        208055
#        231594
#        250287
#        273163
#        295064
#        310064
#        329640
#
# Disc length: 4723 seconds
#
# Revision: 4
# Processed by: cddbd v1.5.2PL0 Copyright (c) Steve Scherf et al.
# Submitted via: ExactAudioCopyFreeDBPlugin 1.0
#
DISCID=f2127111
DTITLE=SNOWY WHITE - BIRD OF PARADISE - AN ANTHOLOGY
DYEAR=2004
DGENRE=Blues
TTITLE0=Bird Of Paradise
TTITLE1=Good Question
TTITLE2=Open Carefully
TTITLE3=At The Crossroads
TTITLE4=Snow Blues
TTITLE5=Rush Hour
TTITLE6=Someone Else Is Gonna Love Me
TTITLE7=Only Women
TTITLE8=Birthday Blues
TTITLE9=Highway To The Sun
TTITLE10=Love, Pain and Sorrow
TTITLE11=All My Money
TTITLE12=Judgement Day
TTITLE13=Blues On Me
TTITLE14=Out Of Order
TTITLE15=I Can't Help Myself
TTITLE16=Land Of Plenty
EXTD=
EXTT0=
EXTT1=
EXTT2=
EXTT3=
EXTT4=
EXTT5=
EXTT6=
EXTT7=
EXTT8=
EXTT9=
EXTT10=
EXTT11=
EXTT12=
EXTT13=
EXTT14=
EXTT15=
EXTT16=
PLAYORDER=
